/vscmnt/brussel_pixiu_data/_data_brussel/112/vsc11236/PredSimResults/SUBJ06opt3D/expIG/worker_10.mot
version=1
nRows=11
nColumns=50
inDegrees=yes
endheader
                time	         pelvis_tilt	         pelvis_list	     pelvis_rotation	           pelvis_tx	           pelvis_ty	           pelvis_tz	       hip_flexion_r	     hip_adduction_r	      hip_rotation_r	        knee_angle_r	       ankle_angle_r	         mtp_angle_r	       hip_flexion_l	     hip_adduction_l	      hip_rotation_l	        knee_angle_l	       ankle_angle_l	         mtp_angle_l	    lumbar_extension	      lumbar_bending	     lumbar_rotation	 ercspn_r/activation	 intobl_r/activation	 extobl_r/activation	    abd_r/activation	    add_r/activation	hamstrings_r/activation	bifemsh_r/activation	glut_max_r/activation	iliopsoas_r/activation	rect_fem_r/activation	  vasti_r/activation	gastroc_r/activation	 soleus_r/activation	tib_ant_r/activation	 ercspn_l/activation	 intobl_l/activation	 extobl_l/activation	    abd_l/activation	    add_l/activation	hamstrings_l/activation	bifemsh_l/activation	glut_max_l/activation	iliopsoas_l/activation	rect_fem_l/activation	  vasti_l/activation	gastroc_l/activation	 soleus_l/activation	tib_ant_l/activation	
          1.04752112	         -7.46676055	         -1.80732190	          6.97892777	          1.57128168	          0.91757589	         -0.00957566	         35.18435996	         -0.83994292	         -9.19327049	         -7.86464158	          2.01219090	          0.27103776	        -12.52246569	         -1.60697202	         -2.57383380	        -10.84046691	          5.52382778	         38.73470377	         -7.51534280	          1.55637143	         -9.73015886	          0.19919985	          0.13095715	          0.00999999	          0.00999999	          0.44326936	          0.18750233	          0.19824736	          0.07658360	          0.14893084	          0.00999999	          0.00999999	          0.01886663	          0.01379653	          0.63294678	          0.22515245	          0.00999999	          0.00999999	          0.05539360	          0.00999999	          0.02426005	          0.27341760	          0.01903444	          0.80953945	          0.00999999	          0.00999999	          0.25390676	          0.37552232	          0.02557113	
          1.05799633	         -7.46268451	         -1.87197243	          7.03234661	          1.59026451	          0.91564687	         -0.00922175	         35.27305625	         -0.69878424	         -8.92051645	        -10.09274847	          1.64299566	          0.22896702	        -12.73658942	         -1.87706985	         -2.94134155	        -12.41059028	          4.14447700	         40.98992016	         -7.20562635	          1.94373899	        -10.14104774	          0.16959142	          0.11149209	          0.00999999	          0.05527555	          0.37738322	          0.17053129	          0.16878050	          0.18345217	          0.12679424	          0.00999999	          0.00999999	          0.01606235	          0.01174586	          0.72171947	          0.23456637	          0.00999999	          0.00999999	          0.04716007	          0.02059616	          0.04788173	          0.24951358	          0.01620522	          0.77036325	          0.00999999	          0.00999999	          0.21616687	          0.32250544	          0.02177032	
          1.06847154	         -7.43760026	         -1.97203418	          7.04996894	          1.60945849	          0.91394774	         -0.00874298	         35.20666640	         -0.53735987	         -8.65556445	        -12.09727880	          1.21391000	          0.21034069	        -12.71922144	         -2.20978866	         -3.32905287	        -14.42416717	          2.62056290	         43.18269050	         -6.89022369	          2.35941321	        -10.49117641	          0.17677078	          0.09492026	          0.00999999	          0.13269020	          0.37989977	          0.14518406	          0.14369351	          0.26124409	          0.10794794	          0.00999999	          0.00999999	          0.01367489	          0.00999999	          0.80688638	          0.23648959	          0.00999999	          0.00999999	          0.04015034	          0.01753481	          0.04076474	          0.22486867	          0.01379653	          0.74153877	          0.00999999	          0.00999999	          0.18403651	          0.27456926	          0.01853445	
          1.07894676	         -7.39290968	         -2.07427352	          7.03026481	          1.62860379	          0.91258875	         -0.00811527	         35.11640077	         -0.35957426	         -8.47580729	        -14.06420211	          0.71713580	          0.17387867	        -12.40138866	         -2.57614810	         -3.72692126	        -16.96885680	          0.93580556	         45.16588365	         -6.60380148	          2.76426814	        -10.77901857	          0.19309570	          0.08081162	          0.00999999	          0.20181575	          0.41333816	          0.12919885	          0.12233536	          0.34144604	          0.09190291	          0.00999999	          0.04324856	          0.01164230	          0.00999999	          0.85061604	          0.27844665	          0.00999999	          0.00999999	          0.03418253	          0.01492849	          0.03470560	          0.21999818	          0.01174586	          0.63131881	          0.00999999	          0.00999999	          0.15668191	          0.23375816	          0.01577954	
          1.08942197	         -7.33086580	         -2.18319081	          6.97871967	          1.64753254	          0.91168884	         -0.00736162	         35.05577757	         -0.16710014	         -8.34313017	        -16.14418157	          0.55403445	          0.11816090	        -11.74421202	         -2.98691064	         -4.13013886	        -20.07676400	         -0.88669945	         46.63833149	         -6.35818135	          3.16494103	        -11.00337141	          0.19046999	          0.06880004	          0.00999999	          0.25035497	          0.40618905	          0.11284708	          0.10415182	          0.35997717	          0.07824275	          0.00999999	          0.14054619	          0.00999999	          0.00999999	          0.88623987	          0.31703500	          0.00999999	          0.00999999	          0.02910174	          0.05759548	          0.05319739	          0.19300399	          0.00999999	          0.53748159	          0.00999999	          0.00999999	          0.13339321	          0.19901309	          0.01343412	
          1.09989718	         -7.25681139	         -2.30005951	          6.89643628	          1.66613236	          0.91140973	         -0.00650488	         34.96554621	          0.05306089	         -8.22875080	        -18.22651433	          0.84107288	          0.07242853	        -10.72441506	         -3.44916711	         -4.54845577	        -23.76018635	         -2.77569514	         47.14050056	         -6.15695178	          3.56247687	        -11.16185794	          0.18391689	          0.05857382	          0.00999999	          0.29476666	          0.39944201	          0.10366326	          0.08867103	          0.30647131	          0.06661300	          0.00999999	          0.25291866	          0.00999999	          0.00999999	          0.81228537	          0.33053213	          0.00999999	          0.00999999	          0.02477615	          0.13097159	          0.04531652	          0.16485625	          0.00999999	          0.45759204	          0.00999999	          0.00999999	          0.11356607	          0.16943241	          0.01143732	
          1.11037239	         -7.17840123	         -2.41531471	          6.78443447	          1.68433422	          0.91188620	         -0.00558294	         34.72750732	          0.30862621	         -8.10845944	        -20.09011862	          1.63845384	          0.08363264	         -9.34685849	         -3.95613827	         -4.98299240	        -27.91199371	         -4.93425329	         46.69453401	         -5.99995262	          3.94740045	        -11.25459240	          0.15658007	          0.04986759	          0.00999999	          0.32251257	          0.36480481	          0.09576337	          0.07549125	          0.26091839	          0.05671185	          0.00999999	          0.35439096	          0.00999999	          0.00999999	          0.69154986	          0.33928307	          0.00999999	          0.00999999	          0.02109350	          0.20608792	          0.04255649	          0.15274933	          0.00999999	          0.38957701	          0.00999999	          0.00999999	          0.09668597	          0.14424852	          0.00999999	
          1.12084760	         -7.10304236	         -2.51467919	          6.64181297	          1.70205142	          0.91321011	         -0.00462891	         34.24723269	          0.59705467	         -7.97006186	        -21.51978892	          2.77252431	          0.25544839	         -7.63516717	         -4.49400100	         -5.43145140	        -32.40098622	         -7.37952458	         45.07315661	         -5.89275576	          4.30486929	        -11.28272691	          0.13330650	          0.04245543	          0.00999999	          0.33891663	          0.32269907	          0.09234530	          0.06427047	          0.22213631	          0.04828238	          0.00999999	          0.39420775	          0.00999999	          0.00999999	          0.58876009	          0.32652835	          0.00999999	          0.00999999	          0.01795823	          0.28456290	          0.03623103	          0.13004516	          0.00999999	          0.33167152	          0.00999999	          0.00999999	          0.08231487	          0.12280788	          0.06894669	
          1.13132281	         -7.03550159	         -2.58307397	          6.46977256	          1.71920673	          0.91532580	         -0.00367661	         33.51394933	          0.90113671	         -7.79985038	        -22.43591892	          3.95943217	          0.59677221	         -5.65057076	         -5.04039091	         -5.86315818	        -37.11889262	         -9.67622397	         41.72945717	         -5.84273179	          4.61968213	        -11.24874048	          0.11349225	          0.03614499	          0.00999999	          0.34055281	          0.27473411	          0.09587442	          0.05471751	          0.18911868	          0.04110584	          0.00999999	          0.40210413	          0.00999999	          0.00999999	          0.50124866	          0.32779389	          0.03429452	          0.00999999	          0.01528898	          0.24257158	          0.03084576	          0.11071566	          0.00999999	          0.28237292	          0.00999999	          0.00999999	          0.07007985	          0.10455411	          0.26696618	
          1.14179802	         -6.97713425	         -2.62258631	          6.27105217	          1.73578173	          0.91806382	         -0.00276153	         32.57030879	          1.20853029	         -7.60381709	        -22.87519394	          4.99493023	          1.02753836	         -3.50980381	         -5.55758775	         -6.21693215	        -41.84951780	        -11.11324420	         36.77870436	         -5.85010594	          4.89443696	        -11.15163115	          0.09662312	          0.03077251	          0.00999999	          0.31815432	          0.23484160	          0.09668386	          0.04658447	          0.16100868	          0.03499600	          0.00999999	          0.39389284	          0.00999999	          0.00999999	          0.42674465	          0.32091597	          0.04112841	          0.00999999	          0.01301647	          0.20651651	          0.02626095	          0.11934172	          0.00999999	          0.24040191	          0.00999999	          0.00999999	          0.07213010	          0.08901352	          0.26512353	
          1.15227323	         -6.92742419	         -2.62316184	          6.04213758	          1.75181975	          0.92129375	         -0.00191944	         31.46673992	          1.49668276	         -7.38210615	        -22.92332715	          5.81800919	          1.48455123	         -1.32469423	         -5.97063773	         -6.47748910	        -46.27782469	        -11.15491913	         32.16418616	         -5.91204491	          5.11931958	        -10.98847362	          0.08226137	          0.02619859	          0.00999999	          0.28191020	          0.21037918	          0.09906577	          0.03966031	          0.13707686	          0.02979431	          0.00999999	          0.35660324	          0.00999999	          0.00999999	          0.37941783	          0.30749330	          0.03794942	          0.00999999	          0.01108175	          0.17582055	          0.02235760	          0.13250504	          0.00999999	          0.20466933	          0.00999999	          0.00999999	          0.06140891	          0.07578283	          0.32466685	
